<?xml version="1.0" standalone="no"?>
<!DOCTYPE svg PUBLIC "-//W3C//DTD SVG 20010904//EN"
 "http://www.w3.org/TR/2001/REC-SVG-20010904/DTD/svg10.dtd">
<svg version="1.0" xmlns="http://www.w3.org/2000/svg"
 width="500.000000pt" height="500.000000pt" viewBox="0 0 500.000000 500.000000"
 preserveAspectRatio="xMidYMid meet">
<metadata>
Created by potrace 1.14, written by Peter Selinger 2001-2017
</metadata>
<g transform="translate(0.000000,500.000000) scale(0.100000,-0.100000)"
fill="#000000" stroke="none">
<path d="M2918 4217 c-49 -25 -59 -55 -34 -109 8 -18 17 -49 20 -69 6 -43 12
-61 38 -116 10 -23 22 -57 25 -77 9 -58 -19 -46 -111 49 -45 47 -86 85 -91 85
-6 0 -16 -9 -23 -21 -11 -17 -19 -20 -45 -14 -63 13 -78 12 -102 -7 -35 -27
-31 -38 14 -38 46 0 70 -22 51 -45 -20 -24 6 -48 47 -43 36 4 46 -7 31 -35 -7
-15 -5 -22 10 -33 14 -9 18 -21 15 -36 -5 -19 -3 -21 8 -10 33 31 54 -11 29
-58 -14 -26 -50 -10 -135 62 -167 140 -204 163 -291 176 -161 26 -350 -33
-417 -129 -19 -27 -71 -66 -65 -48 3 8 -1 22 -10 31 -10 12 -16 48 -20 115 -4
83 -8 102 -27 123 -24 28 -51 88 -47 107 2 9 -12 12 -45 10 -46 -2 -48 -3 -47
-32 0 -16 4 -37 7 -45 5 -10 -1 -20 -15 -29 -18 -11 -23 -11 -32 1 -31 41
-138 54 -204 24 -68 -31 -77 -55 -87 -236 -2 -47 -7 -121 -9 -165 -3 -44 -8
-134 -11 -200 -8 -168 -14 -256 -30 -485 -3 -49 -14 -290 -20 -460 -2 -36 -3
-76 -4 -90 -1 -22 -5 -18 -36 27 -19 29 -35 55 -35 57 0 3 -13 27 -29 53 -16
27 -66 118 -110 203 -127 243 -132 253 -153 283 -26 37 -78 57 -148 57 -81 0
-116 -9 -145 -36 l-26 -24 32 -58 c18 -31 54 -100 82 -152 119 -229 267 -493
279 -498 4 -2 8 -7 8 -12 0 -7 43 -82 90 -155 8 -13 29 -47 46 -77 62 -104 88
-132 140 -151 92 -32 216 -16 258 33 42 51 52 143 71 685 4 101 8 192 21 415
7 141 9 145 61 195 47 45 47 45 59 23 6 -13 17 -47 24 -76 16 -71 32 -87 69
-68 15 8 34 22 41 31 15 19 63 45 91 50 14 3 21 -4 25 -23 17 -68 94 -178 183
-260 45 -42 140 -95 208 -117 165 -53 293 -151 317 -242 13 -49 13 -52 -12
-84 -37 -47 -40 -49 -108 -46 -66 3 -152 40 -225 98 -19 15 -47 33 -62 40 -15
7 -27 15 -27 19 0 20 -72 35 -163 35 -83 0 -100 3 -108 18 -7 11 -22 17 -44
17 -36 0 -45 -10 -97 -105 -29 -53 -38 -42 -36 43 1 61 -2 86 -15 106 -19 28
-36 34 -38 14 -2 -23 -5 -33 -17 -61 -8 -18 -9 -41 -4 -65 5 -20 7 -53 5 -72
-8 -70 -7 -98 7 -115 13 -15 15 -14 27 9 20 38 27 32 18 -16 -16 -88 -14 -161
5 -210 10 -26 14 -48 10 -48 -5 0 -12 -9 -15 -20 -9 -30 -22 -25 -47 20 -26
46 -45 51 -54 15 -5 -19 -13 -25 -34 -25 -27 0 -33 -8 -45 -57 -2 -7 3 -17 11
-24 8 -7 11 -20 8 -35 -4 -15 2 -42 17 -72 12 -26 24 -53 25 -61 6 -35 23 -32
49 8 14 23 37 47 50 53 14 6 25 15 25 20 0 23 93 -19 150 -69 95 -82 197 -127
423 -184 145 -37 177 -57 177 -112 0 -34 -3 -38 -91 -119 -54 -50 4 -163 122
-239 79 -50 160 -64 269 -44 82 14 278 120 259 139 -3 3 -27 -6 -54 -20 -28
-14 -72 -31 -100 -38 -71 -19 -192 -13 -247 12 -38 17 -48 26 -60 63 -8 24
-13 50 -12 57 1 6 2 21 3 32 1 14 8 20 26 20 26 0 29 3 40 54 4 19 15 32 36
39 33 13 33 28 2 95 -16 33 -16 34 12 56 l27 22 -25 17 c-15 9 -31 17 -37 17
-5 0 -20 16 -32 35 -13 19 -27 34 -33 34 -30 -3 -47 4 -69 27 -19 21 -30 25
-50 20 -19 -5 -31 -1 -46 14 -15 15 -27 19 -43 14 -12 -4 -27 -9 -34 -10 -16
-3 -36 22 -28 36 4 6 -12 10 -45 10 -63 0 -90 13 -83 39 4 15 -2 20 -25 25
-16 4 -43 21 -61 38 -29 28 -30 32 -14 43 16 12 16 18 6 45 -11 28 -10 30 7
25 10 -3 25 1 33 10 22 22 28 19 21 -10 -7 -27 4 -32 35 -16 41 22 83 -15 44
-38 -16 -9 -16 -10 5 -11 12 0 22 4 22 9 0 15 39 23 76 16 28 -5 34 -10 34
-30 0 -30 13 -31 66 -8 47 20 89 23 90 6 1 -7 2 -15 3 -18 0 -2 20 2 42 10 53
19 83 19 99 0 20 -24 26 -19 65 45 l36 60 30 -16 30 -15 15 38 c21 54 31 68
44 65 34 -8 46 8 46 62 0 30 6 62 13 70 7 8 10 19 7 24 -10 16 -15 62 -7 67 5
2 16 -4 26 -15 9 -10 23 -16 31 -13 11 4 11 11 -2 41 -23 53 -33 90 -39 147
-3 29 -13 60 -25 75 -11 14 -29 44 -40 66 -13 27 -31 46 -50 54 -44 18 -80 49
-90 76 -6 14 -18 24 -30 24 -34 0 -99 31 -105 51 -7 20 -18 24 -97 34 -54 7
-77 27 -58 50 7 8 10 16 6 16 -3 1 -9 2 -13 3 -5 1 -24 6 -43 10 -19 5 -51 17
-71 27 -30 15 -36 22 -32 42 4 20 -1 26 -24 34 -15 6 -39 19 -53 30 -23 19
-23 21 -7 38 17 16 17 19 -3 52 -25 43 -26 63 -1 63 10 0 26 11 35 25 12 19
24 25 46 23 32 -2 36 -8 19 -25 -21 -21 -2 -43 38 -43 21 0 45 -5 53 -10 15
-9 16 -14 19 -53 1 -14 8 -18 29 -17 63 5 71 1 74 -31 l3 -32 70 -1 c65 -1 69
-2 75 -26 5 -18 12 -24 26 -21 71 13 116 12 139 -3 23 -15 26 -15 50 8 22 20
31 23 51 15 36 -13 39 -12 52 16 6 13 35 38 65 55 79 44 101 72 102 125 l0 44
20 -25 c14 -17 34 -27 63 -31 l43 -6 -6 -51 c-4 -28 -9 -58 -10 -66 -8 -42
-25 -172 -30 -225 -5 -52 -12 -97 -30 -215 -13 -87 -25 -185 -30 -245 -3 -38
-7 -81 -10 -95 -2 -14 -6 -56 -10 -93 -3 -37 -8 -76 -10 -86 -2 -10 -6 -54
-10 -97 -4 -43 -8 -92 -10 -107 -3 -36 29 -74 73 -87 19 -5 70 -8 113 -6 108
4 126 21 133 125 3 40 6 74 8 75 2 2 44 15 93 30 50 15 137 42 195 61 58 18
121 36 140 40 l36 6 17 -53 c28 -89 57 -131 107 -155 84 -41 206 -22 230 37
13 31 20 7 -102 345 -45 125 -110 327 -158 490 -18 61 -50 164 -72 230 -22 66
-41 125 -42 130 -1 6 -4 15 -7 20 -4 6 -17 42 -29 80 -34 106 -115 266 -156
307 -42 44 -91 60 -184 61 -87 0 -150 -27 -173 -76 -9 -19 -17 -42 -17 -51 0
-8 -5 -37 -11 -65 -9 -42 -15 -51 -42 -60 -20 -8 -34 -8 -41 -1 -16 16 -18 34
-15 125 1 34 -5 45 -33 70 -18 17 -42 43 -52 58 -16 27 -16 29 -1 41 15 11 13
15 -19 37 -20 13 -36 27 -36 32 0 4 -8 7 -18 7 -12 0 -27 16 -42 44 -12 24
-39 62 -60 83 -35 37 -42 55 -65 169 -7 31 -39 35 -87 11z m-1180 -327 c8 -13
4 -24 -19 -51 -28 -33 -38 -56 -20 -45 5 4 11 1 13 -5 2 -6 14 -1 28 11 23 20
25 20 38 3 10 -13 12 -40 9 -98 -5 -97 -1 -110 38 -110 l29 0 2 -80 c1 -86 11
-145 23 -145 5 0 7 -14 5 -31 -7 -61 -25 -65 -44 -10 -16 49 -165 211 -159
174 4 -22 -2 -44 -10 -39 -9 6 -9 16 4 231 5 66 9 145 11 175 1 30 3 56 3 58
2 6 39 -23 49 -38z m1668 -432 c-2 -18 -4 -36 -5 -40 -2 -13 -42 5 -52 23 -8
15 -6 20 8 25 10 3 25 9 33 14 8 5 16 9 17 9 2 1 1 -14 -1 -31z m414 -548 c17
-58 57 -185 89 -283 l57 -177 -35 -10 c-133 -35 -193 -52 -241 -68 -30 -11
-68 -23 -84 -26 l-28 -7 7 58 c4 32 9 81 11 108 4 54 8 93 25 200 5 39 12 86
15 105 2 19 6 51 9 70 3 19 7 58 10 85 12 108 33 260 41 295 6 25 40 -72 124
-350z"/>
<path d="M1865 1803 c-16 -10 -35 -18 -42 -19 -12 -2 -65 -38 -95 -65 -16 -14
-17 -18 -4 -28 10 -8 21 -9 33 -3 30 16 78 -13 68 -40 -3 -7 1 -22 9 -33 10
-12 15 -15 16 -7 0 7 5 10 12 6 6 -4 8 -3 4 4 -3 6 0 16 7 24 17 18 49 86 58
126 6 26 3 34 -11 42 -23 12 -19 13 -55 -7z m2 -68 c0 -8 -9 -23 -19 -32 -17
-15 -20 -15 -28 -3 -6 10 -5 16 3 19 6 2 18 10 25 18 17 17 19 16 19 -2z"/>
<path d="M4285 1780 c-3 -5 -1 -10 4 -10 6 0 11 5 11 10 0 6 -2 10 -4 10 -3 0
-8 -4 -11 -10z"/>
<path d="M3185 1766 c-65 -32 -95 -75 -95 -137 0 -36 15 -68 42 -90 27 -21 26
-65 0 -88 -33 -28 -42 -62 -27 -98 20 -46 54 -65 115 -62 80 4 125 55 117 132
-7 60 -8 62 -54 153 -44 86 -47 103 -21 133 16 19 43 20 106 7 31 -7 27 6 -10
34 -40 30 -128 38 -173 16z"/>
<path d="M1193 1751 c-142 -75 -258 -215 -271 -327 -10 -89 65 -204 143 -218
122 -23 297 79 538 316 51 50 58 61 55 90 -3 40 -61 103 -82 91 -8 -5 -63 -55
-124 -113 -161 -155 -299 -244 -385 -249 -35 -2 -37 0 -33 22 10 56 78 138
216 259 47 41 52 49 46 75 -15 59 -55 80 -103 54z"/>
<path d="M1986 1742 c15 -22 14 -26 -7 -50 -13 -15 -37 -39 -53 -54 -16 -16
-25 -28 -20 -28 5 0 4 -4 -2 -8 -13 -8 0 -52 15 -52 6 0 29 26 52 57 68 91 69
92 101 86 39 -8 35 10 -7 30 -19 9 -35 21 -35 27 0 5 -7 6 -17 3 -9 -4 -14 -2
-10 3 3 5 -3 10 -13 10 -18 0 -18 -2 -4 -24z"/>
<path d="M4266 1714 c-3 -9 -6 -27 -6 -40 0 -30 0 -30 -83 2 -63 24 -97 26
-97 6 0 -5 33 -21 73 -37 39 -15 77 -32 83 -37 17 -12 41 0 48 25 15 58 0 128
-18 81z"/>
<path d="M4044 1602 c-14 -13 -7 -23 62 -93 45 -45 82 -75 90 -72 16 6 18 19
5 28 -6 3 -6 17 1 35 9 26 24 35 51 31 4 0 7 8 7 19 0 11 -7 20 -15 20 -8 0
-23 4 -33 9 -21 11 -98 32 -130 36 -13 1 -30 -4 -38 -13z m117 -50 c32 -15 36
-20 28 -39 -8 -22 -9 -21 -43 13 -50 50 -48 55 15 26z"/>
<path d="M1709 1503 c-24 -19 -57 -47 -74 -61 -16 -15 -39 -34 -51 -42 -20
-14 -105 -86 -145 -122 -10 -10 -21 -18 -24 -18 -2 0 -15 -10 -28 -22 -38 -37
-74 -66 -114 -91 -79 -51 -89 -88 -36 -141 22 -22 28 -23 51 -13 15 6 41 22
59 35 l31 23 46 -22 c25 -11 46 -23 46 -25 0 -3 -6 -19 -13 -37 -22 -51 -3
-112 42 -137 28 -14 54 11 99 100 21 41 67 121 103 178 172 274 185 316 121
391 -38 44 -61 45 -113 4z m-176 -393 c-30 -53 -42 -59 -67 -34 -22 22 -20 27
17 49 17 10 41 27 52 37 30 29 30 4 -2 -52z"/>
<path d="M1981 1454 c-11 -15 -21 -31 -21 -36 0 -5 -13 -29 -30 -53 -16 -24
-30 -46 -30 -49 0 -3 -21 -40 -46 -83 -26 -43 -61 -105 -79 -138 -82 -153 -98
-181 -108 -193 -24 -30 41 -132 84 -132 9 0 21 11 29 24 l13 25 68 -35 c136
-70 242 -48 241 48 -1 27 -10 53 -28 79 -15 22 -25 41 -23 43 2 2 29 7 59 10
217 25 303 131 235 290 -31 73 -165 185 -245 205 -92 24 -97 24 -119 -5z m193
-119 c87 -42 115 -101 77 -161 -18 -29 -96 -76 -131 -79 -82 -8 -156 -18 -162
-21 -3 -2 -10 0 -13 6 -4 6 16 55 43 108 27 53 53 108 57 121 4 14 13 30 19
37 13 16 64 10 110 -11z m-201 -410 c40 -19 45 -31 24 -59 -19 -25 -105 -25
-150 0 -15 9 -16 15 -7 40 6 16 18 36 26 46 13 14 19 14 42 3 15 -7 44 -21 65
-30z"/>
<path d="M3851 1357 c-6 -8 -9 -16 -7 -18 3 -3 7 -16 10 -29 3 -14 9 -40 15
-57 11 -39 5 -40 -47 -13 -38 20 -72 19 -72 -2 0 -6 10 -23 23 -38 12 -15 33
-43 47 -61 50 -65 54 -69 69 -60 12 8 12 14 -4 38 -10 15 -25 34 -32 41 -22
23 -14 31 18 19 27 -10 32 -9 44 7 8 10 12 23 9 27 -3 5 -7 17 -9 26 -2 10 -7
32 -11 48 -7 28 -6 29 12 15 10 -8 36 -32 57 -52 21 -22 43 -35 51 -32 21 8 9
32 -38 77 -79 75 -112 91 -135 64z"/>
<path d="M4073 1313 c-7 -2 -13 -9 -13 -15 0 -6 6 -8 14 -5 8 3 16 1 18 -5 2
-6 9 -8 16 -4 6 3 9 13 5 21 -5 15 -18 18 -40 8z"/>
<path d="M3658 1193 c-10 -2 -18 -6 -18 -8 0 -9 43 -121 50 -130 4 -5 13 -27
20 -48 13 -42 43 -48 48 -9 5 31 40 54 64 41 28 -15 37 18 9 37 -12 9 -29 24
-39 34 -23 24 -106 90 -112 89 -3 -1 -13 -3 -22 -6z m76 -85 c8 -7 23 -20 35
-28 19 -13 19 -15 4 -32 -23 -26 -29 -23 -47 22 -22 55 -19 64 8 38z"/>
<path d="M3585 1138 c4 -13 20 -50 36 -82 30 -61 36 -86 20 -86 -5 0 -16 -3
-24 -6 -10 -3 -18 3 -23 18 -4 13 -16 43 -27 68 -11 25 -20 48 -19 52 3 12
-29 31 -38 22 -8 -9 27 -128 50 -166 5 -10 10 -24 10 -32 0 -8 4 -17 9 -20 15
-10 42 6 37 21 -8 21 36 38 63 24 34 -18 35 7 4 69 -14 30 -28 60 -29 67 -1 7
-12 26 -24 43 -26 36 -55 41 -45 8z"/>
<path d="M3371 1056 c-21 -22 -29 -75 -13 -90 4 -4 7 -11 7 -14 1 -4 11 -26
23 -48 49 -95 160 -70 147 32 -6 53 -18 61 -57 42 -27 -14 -29 -17 -12 -17 17
-1 23 -9 27 -33 2 -18 0 -41 -5 -52 -10 -18 -11 -17 -35 7 -31 31 -64 123 -54
151 11 29 25 30 59 1 33 -28 52 -32 52 -12 0 47 -103 72 -139 33z"/>
<path d="M3280 1027 c0 -1 9 -34 20 -72 l20 -70 -38 42 c-20 23 -50 45 -65 49
l-29 7 5 -49 c3 -27 6 -49 7 -49 2 0 6 -24 15 -87 5 -40 10 -48 27 -48 19 0
20 4 13 57 -9 74 -12 91 -21 104 -4 8 0 8 15 0 11 -7 21 -15 21 -20 0 -4 20
-29 45 -54 67 -70 97 -46 56 46 -11 23 -27 66 -36 95 -12 39 -21 52 -36 52
-10 0 -19 -1 -19 -3z"/>
<path d="M3113 964 c-5 -13 0 -55 12 -104 2 -8 6 -41 10 -73 7 -52 10 -58 29
-55 25 4 25 5 -1 138 -4 19 -8 46 -9 60 -3 38 -3 37 -19 44 -9 3 -18 -1 -22
-10z"/>
<path d="M2504 958 c-5 -7 -9 -17 -11 -23 -1 -5 -13 -49 -26 -97 -13 -48 -21
-91 -18 -95 10 -14 60 -33 86 -33 33 0 39 15 19 45 -13 21 -14 25 -2 25 27 0
74 53 77 88 1 17 -2 32 -7 32 -5 0 -14 11 -22 24 -7 14 -23 27 -35 30 -13 3
-30 8 -38 12 -8 3 -19 -1 -23 -8z m87 -46 c0 -4 2 -17 3 -30 3 -27 -28 -72
-50 -72 -8 0 -14 -4 -14 -10 0 -5 -7 -10 -15 -10 -8 0 -15 1 -15 3 0 1 9 34
19 74 10 40 16 75 12 79 -3 3 9 -1 27 -10 17 -9 32 -20 33 -24z m-67 -155 c16
-11 16 -15 3 -25 -12 -10 -18 -10 -31 3 -28 28 -5 46 28 22z"/>
<path d="M3005 928 c-4 -18 -9 -46 -11 -61 -2 -16 -8 -36 -14 -45 -8 -15 -9
-15 -10 3 -1 46 -57 105 -73 78 -3 -5 -8 -51 -11 -103 -4 -52 -9 -96 -11 -99
-6 -5 15 -31 26 -31 7 0 13 32 23 112 4 32 14 30 27 -5 8 -24 20 -37 35 -40
25 -4 38 21 48 93 2 19 5 37 6 40 1 3 8 -26 17 -65 16 -75 27 -97 47 -89 9 4
9 21 -1 82 -23 127 -34 157 -64 160 -22 3 -27 -2 -34 -30z"/>
<path d="M2665 917 c-8 -22 -55 -207 -55 -217 0 -12 37 -14 43 -2 3 4 8 25 11
47 4 22 13 62 21 89 8 27 15 57 15 67 0 20 -29 34 -35 16z"/>
<path d="M2726 922 c-6 -10 -22 -106 -32 -188 -5 -41 -3 -52 10 -57 9 -4 19 1
25 10 8 15 11 15 36 -1 l28 -18 -7 26 c-5 20 -2 28 11 33 55 21 75 79 48 137
-10 20 -18 36 -19 36 0 0 -22 7 -48 15 -26 7 -49 11 -52 7z m82 -44 c25 -30
22 -68 -9 -102 -25 -29 -78 -59 -64 -36 3 4 8 34 11 66 6 55 11 95 13 102 2 5
38 -17 49 -30z"/>
</g>
</svg>
